<svg width="24" height="24" viewBox="0 0 24 24" fill="none" xmlns="http://www.w3.org/2000/svg">
<g id="radix-icons:twitter-logo">
<path id="Vector" fill-rule="evenodd" clip-rule="evenodd" d="M11.5727 7.51358C11.5727 4.75038 13.8127 2.51038 16.5759 2.51038C18.1983 2.51038 19.4927 3.27678 20.3599 4.39038C21.2772 4.20237 22.1565 3.8622 22.9615 3.38398C22.6498 4.3539 21.9973 5.17808 21.1247 5.70398L21.1279 5.70878C21.9563 5.60869 22.7651 5.38599 23.5279 5.04798L23.5263 5.05118C22.9871 5.85918 22.3103 6.57118 21.5295 7.15198C21.5711 7.43518 21.5935 7.71838 21.5935 7.99998C21.5935 13.8992 17.0991 20.76 8.83354 20.76C6.39626 20.7621 4.00995 20.0622 1.95994 18.744C1.86342 18.682 1.78136 18.6001 1.7193 18.5036C1.65724 18.4072 1.61664 18.2985 1.60025 18.185C1.58386 18.0715 1.59207 17.9558 1.62431 17.8458C1.65656 17.7357 1.71209 17.6339 1.78714 17.5472C1.8585 17.4285 1.96257 17.333 2.08687 17.2719C2.21116 17.2109 2.35041 17.1871 2.48794 17.2032C3.95354 17.376 5.41594 17.1968 6.70714 16.6336C6.07027 16.3522 5.50012 15.9393 5.0341 15.422C4.56808 14.9047 4.21674 14.2947 4.00314 13.632C3.96364 13.5087 3.9581 13.3771 3.9871 13.2509C4.0161 13.1248 4.07857 13.0088 4.16794 12.9152C3.64211 12.4537 3.22092 11.8853 2.93257 11.2478C2.64422 10.6104 2.49535 9.91878 2.49594 9.21918V9.16478C2.4959 8.99739 2.55418 8.83522 2.66076 8.70616C2.76734 8.57709 2.91556 8.48919 3.07994 8.45758C2.71718 7.75754 2.52839 6.98042 2.52954 6.19198C2.52954 5.44318 2.53434 4.49918 3.06074 3.64798C3.11698 3.5578 3.19248 3.48119 3.28184 3.42365C3.37119 3.36611 3.47217 3.32907 3.57754 3.31518C3.73032 3.26699 3.89404 3.26578 4.04752 3.31171C4.20099 3.35764 4.33714 3.44859 4.43834 3.57278C6.22189 5.76684 8.77288 7.20077 11.5743 7.58398V7.51358H11.5727ZM8.83354 19.16C7.60936 19.1609 6.39348 18.9592 5.23514 18.5632C6.6284 18.3334 7.94256 17.7604 9.05914 16.896C9.17616 16.8042 9.26188 16.6784 9.30453 16.5359C9.34717 16.3934 9.34465 16.2412 9.2973 16.1003C9.24995 15.9593 9.16011 15.8364 9.04011 15.7485C8.92011 15.6607 8.77584 15.6121 8.62714 15.6096C8.09148 15.5999 7.56528 15.4667 7.08959 15.2202C6.6139 14.9738 6.20156 14.6208 5.88474 14.1888C6.18874 14.1648 6.48634 14.112 6.77434 14.0352C6.93133 13.9932 7.06951 13.8994 7.1664 13.7689C7.2633 13.6384 7.3132 13.479 7.30801 13.3166C7.30282 13.1542 7.24283 12.9983 7.13781 12.8743C7.03278 12.7503 6.88889 12.6654 6.72954 12.6336C6.12083 12.5103 5.55609 12.2266 5.09366 11.812C4.63124 11.3974 4.28791 10.8669 4.09914 10.2752C4.41914 10.352 4.75354 10.3984 5.09594 10.4096C5.25241 10.4148 5.40633 10.369 5.53438 10.2789C5.66244 10.1888 5.75764 10.0595 5.80557 9.91042C5.85351 9.76138 5.85155 9.60077 5.80001 9.45294C5.74847 9.30511 5.65014 9.17811 5.51994 9.09118C5.0425 8.77311 4.65101 8.34203 4.38026 7.83626C4.10951 7.33048 3.96787 6.76566 3.96794 6.19198C3.96794 5.92318 3.97274 5.68478 3.98874 5.46718C6.22757 7.75196 9.24507 9.10932 12.4399 9.26878C12.5633 9.27505 12.6865 9.25267 12.7997 9.20339C12.913 9.1541 13.0133 9.07926 13.0928 8.98472C13.1723 8.89017 13.2289 8.7785 13.258 8.65845C13.2871 8.53841 13.2881 8.41324 13.2607 8.29278C13.1432 7.79318 13.1402 7.27347 13.252 6.77256C13.3637 6.27164 13.5873 5.80248 13.9061 5.40021C14.2248 4.99793 14.6303 4.67295 15.0924 4.44958C15.5545 4.22622 16.0611 4.11025 16.5743 4.11038C18.5487 4.11038 19.9919 5.93918 19.9919 8.00158C19.9919 13.2112 16.0319 19.16 8.83354 19.16Z" fill="#4D65FE"/>
</g>
</svg>
